<?xml version="1.0" encoding="utf-8"?>
<!DOCTYPE svg PUBLIC "-//W3C//DTD SVG 1.1 Basic//EN" "http://www.w3.org/Graphics/SVG/1.1/DTD/svg11-basic.dtd">
<svg version="1.1" baseProfile="tiny" id="Layer_1" xmlns="http://www.w3.org/2000/svg" xmlns:xlink="http://www.w3.org/1999/xlink"
	 x="0mm" y="0mm" width="8.2mm" height="5mm" viewBox="0 0 8.2 5" xml:space="preserve">
    <rect  x="0" y="0" height="4.8" width="8.2"   stroke="none" stroke-width="0" fill="#DCDCDC" />
    <path d="m 3,0 h -1.2 v 1 q -0.2,0.15 0,0.3 h 1.2" fill="#1E1E1E"/>
    <path d="m 5.2,0 h 1.2 v 1 q 0.2,0.15 0,0.3 h -1.2" fill="#1E1E1E"/>
    <path d="m 1.9,2.4 h -0.7 v 1.3 q -0.25,0.15 0,0.3 v 0.4 h 0.7 v-0.43 q 0.25,-0.15 0,-0.3" fill="#1E1E1E"/>
    <path d="m 6.3,2.4 h 0.7 v 1.3 q 0.25,0.15 0,0.3 v 0.4 h -0.7 v-0.43 q -0.25,-0.15 0,-0.3" fill="#1E1E1E"/>
    <rect  x="0.3" y="4.9" height="0.1" stroke="none" width="7.6"   stroke-width="0" fill="#EDEDED" />
    <rect  x="0.3" y="4.8" height="0.1" stroke="none" width="7.6"   stroke-width="0" fill="#BDBDBD" />
    <rect  x="0" y="4.7" height="0.1" stroke="none" width="8.2"   stroke-width="0" fill="#EDEDED" />

</svg>
